<svg xmlns="http://www.w3.org/2000/svg" width="2000" height="427" viewBox="-56 821.30680859375 1459.9677734375 312">
  
  <path transform="translate(0 877.30680859375) scale(8.333333333333334)" fill="#FFCC00" d="M19.14,12.94c0.04-0.3,0.06-0.61,0.06-0.94c0-0.32-0.02-0.64-0.06-0.94l2.03-1.58c0.18-0.14,0.23-0.41,0.12-0.61 l-1.92-3.32c-0.12-0.22-0.37-0.29-0.59-0.22l-2.39,0.96c-0.5-0.38-1.03-0.7-1.62-0.94L14.4,2.81c-0.04-0.24-0.24-0.41-0.48-0.41 h-3.84c-0.24,0-0.43,0.17-0.47,0.41L9.25,5.35C8.66,5.59,8.12,5.92,7.63,6.29L5.24,5.33c-0.22-0.08-0.47,0-0.59,0.22L2.73,8.87 C2.62,9.08,2.66,9.34,2.86,9.48l2.03,1.58C4.84,11.36,4.8,11.69,4.8,12s0.02,0.64,0.06,0.94l-2.03,1.58 c-0.18,0.14-0.23,0.41-0.12,0.61l1.92,3.32c0.12,0.22,0.37,0.29,0.59,0.22l2.39-0.96c0.5,0.38,1.03,0.7,1.62,0.94l0.36,2.54 c0.05,0.24,0.24,0.41,0.48,0.41h3.84c0.24,0,0.43-0.17,0.47-0.41l0.36-2.54c0.59-0.24,1.13-0.56,1.62-0.94l2.39,0.96 c0.22,0.08,0.47,0,0.59-0.22l1.92-3.32c0.12-0.22,0.07-0.49-0.12-0.61L19.14,12.94z M12,15.6c-1.98,0-3.6-1.62-3.6-3.6 s1.62-3.6,3.6-3.6s3.6,1.62,3.6,3.6S13.98,15.6,12,15.6z"/>
  <path fill="#FFCC00" d="M296.94 1000L264.57 1000L264.57 902.81L296.94 902.81L296.94 941.33L327.92 941.33L327.92 960.08L296.94 960.08L296.94 1000M352.68 930.93L322.21 930.93L322.21 921.63L302.07 921.63L302.07 902.81L352.68 902.81L352.68 930.93M352.68 1000L302.07 1000L302.07 980.59L320.31 980.59L320.31 970.85L352.68 970.85L352.68 1000M468.84 1000L436.10 1000L432 989.38L400.21 989.38L406.95 970.12L424.53 970.12L398.53 902.81L430.10 902.81L468.84 1000M391.57 1000L360.30 1000L395.01 907.20L409.37 945.80L391.57 1000M551.17 1000L538.13 1000L538.13 963.60L496.09 963.60L476.61 944.12L476.61 922.22L496.09 902.81L507.07 902.81L507.07 937.30L551.75 937.30L570.58 956.79L570.58 980.59L551.17 1000M567.94 930.05L538.13 930.05L538.13 920.31L512.20 920.31L512.20 902.81L551.09 902.81L567.94 919.73L567.94 930.05M533 1000L492.94 1000L476.61 980.59L476.61 970.85L508.98 970.85L508.98 982.42L533 982.42L533 1000M665.86 923.97L581.49 923.97L581.49 902.81L665.86 902.81L665.86 923.97M640.52 1000L606.83 1000L606.83 929.03L640.52 929.03L640.52 1000M710.61 1000L678.24 1000L678.24 902.81L710.61 902.81L710.61 941.33L741.60 941.33L741.60 960.08L710.61 960.08L710.61 1000M766.35 930.93L735.88 930.93L735.88 921.63L715.74 921.63L715.74 902.81L766.35 902.81L766.35 930.93M766.35 1000L715.74 1000L715.74 980.59L733.98 980.59L733.98 970.85L766.35 970.85L766.35 1000M830.80 970.85L819.38 970.85L819.38 952.03L843.70 952.03L843.70 922.22L819.38 922.22L819.38 902.81L856.37 902.81L875.85 922.22L875.85 951.37L860.76 966.46L879.14 1000L844.57 1000L830.80 970.85M814.25 1000L781.88 1000L781.88 902.81L814.25 902.81L814.25 1000M984.03 1000L949.60 1000L890.72 902.81L924.92 902.81L984.03 1000M984.03 902.81L984.03 990.77L955.83 944.34L955.83 902.81L984.03 902.81M918.92 1000L890.72 1000L890.72 912.04L918.92 958.25L918.92 1000M1113.23 975.02L1076.90 975.02L1076.90 955.54L1100.41 955.54L1100.41 922.22L1076.90 922.22L1076.90 902.81L1113.23 902.81L1132.64 922.22L1132.64 955.54L1113.23 975.02M1071.77 1000L1039.98 1000L1039.98 902.81L1071.77 902.81L1071.77 1000M1195.84 970.85L1184.42 970.85L1184.42 952.03L1208.73 952.03L1208.73 922.22L1184.42 922.22L1184.42 902.81L1221.41 902.81L1240.89 922.22L1240.89 951.37L1225.80 966.46L1244.18 1000L1209.61 1000L1195.84 970.85M1179.29 1000L1146.92 1000L1146.92 902.81L1179.29 902.81L1179.29 1000M1328.34 1000L1303.22 1000L1303.22 980.22L1315.59 980.22L1315.59 922.51L1303.22 922.51L1303.22 902.81L1328.34 902.81L1347.97 922.22L1347.97 980.59L1328.34 1000M1298.09 1000L1273.19 1000L1253.49 980.59L1253.49 922.22L1273.19 902.81L1298.09 902.81L1298.09 922.51L1285.93 922.51L1285.93 980.22L1298.09 980.22"/>
  <path fill="#F3F4F6" d="M268.68 1038.85L261.68 1038.85L261.68 1049.80L258.72 1049.80L258.72 1026L261.68 1026L261.68 1036.34L268.68 1036.34L268.68 1026L271.64 1026L271.64 1049.80L268.68 1049.80L268.68 1038.85M282.86 1026L294.22 1026L294.22 1028.48L285.82 1028.48L285.82 1036.27L293.37 1036.27L293.37 1038.75L285.82 1038.75L285.82 1047.32L294.22 1047.32L294.22 1049.80L282.86 1049.80L282.86 1026M315.23 1043.78L308.60 1043.78L307.28 1049.80L304.25 1049.80L310 1026L313.91 1026L319.55 1049.80L316.52 1049.80L315.23 1043.78M309.15 1041.23L314.69 1041.23L311.90 1028.24L309.15 1041.23M332.98 1049.80L327.98 1026L330.98 1026L335.06 1046.81L339.44 1026L342.37 1026L337.03 1049.80L332.98 1049.80M360.08 1049.80L357.02 1049.80L357.02 1038.75L350.94 1026L354.20 1026L358.69 1035.89L363.18 1026L366.27 1026L360.08 1038.75L360.08 1049.80M399.66 1026L411.02 1026L411.02 1028.48L402.62 1028.48L402.62 1036.27L410.17 1036.27L410.17 1038.75L402.62 1038.75L402.62 1047.32L411.02 1047.32L411.02 1049.80L399.66 1049.80L399.66 1026M432.64 1049.19Q431.32 1049.80 429.38 1049.80L428.02 1049.80Q425.06 1049.80 423.48 1048.36Q421.90 1046.91 421.90 1044.02L421.90 1031.78Q421.90 1028.89 423.48 1027.44Q425.06 1026 428.02 1026L429.38 1026Q432.34 1026 433.92 1027.44Q435.50 1028.89 435.50 1031.78L435.50 1044.02Q435.50 1046.03 434.72 1047.39L437.20 1049.87L435.26 1051.81L432.64 1049.19M432.54 1031.13Q432.54 1030.08 431.76 1029.33Q430.98 1028.58 429.72 1028.58L427.68 1028.58Q426.42 1028.58 425.64 1029.33Q424.86 1030.08 424.86 1031.13L424.86 1044.67Q424.86 1045.72 425.64 1046.47Q426.42 1047.22 427.68 1047.22L429.72 1047.22Q430.98 1047.22 431.76 1046.47Q432.54 1045.72 432.54 1044.67L432.54 1031.13M458.59 1044.02Q458.59 1046.91 457.01 1048.36Q455.43 1049.80 452.47 1049.80L451.62 1049.80Q448.66 1049.80 447.08 1048.36Q445.50 1046.91 445.50 1044.02L445.50 1026L448.46 1026L448.46 1044.67Q448.46 1045.72 449.24 1046.47Q450.02 1047.22 451.28 1047.22L452.81 1047.22Q454.07 1047.22 454.85 1046.47Q455.63 1045.72 455.63 1044.67L455.63 1026L458.59 1026L458.59 1044.02M470.86 1047.32L473.92 1047.32L473.92 1028.48L470.86 1028.48L470.86 1026L479.94 1026L479.94 1028.48L476.88 1028.48L476.88 1047.32L479.94 1047.32L479.94 1049.80L470.86 1049.80L470.86 1047.32M504.93 1035.18Q504.93 1037.93 503.47 1039.24Q502.01 1040.55 499.15 1040.55L495.62 1040.55L495.62 1049.80L492.66 1049.80L492.66 1026L499.09 1026Q501.98 1026 503.46 1027.27Q504.93 1028.55 504.93 1031.30L504.93 1035.18M501.98 1031Q501.98 1029.71 501.38 1029.13Q500.79 1028.55 499.49 1028.55L495.62 1028.55L495.62 1038L499.49 1038Q500.79 1038 501.38 1037.41Q501.98 1036.81 501.98 1035.52L501.98 1031M526.90 1028.45L523.50 1041.81L520.68 1041.81L517.35 1028.45L517.35 1049.80L514.76 1049.80L514.76 1026L519.49 1026L522.21 1038.17L524.96 1026L529.55 1026L529.55 1049.80L526.90 1049.80L526.90 1028.45M539.82 1026L551.18 1026L551.18 1028.48L542.78 1028.48L542.78 1036.27L550.33 1036.27L550.33 1038.75L542.78 1038.75L542.78 1047.32L551.18 1047.32L551.18 1049.80L539.82 1049.80L539.82 1026M565.12 1028.52L565.12 1049.80L562.37 1049.80L562.37 1026L567.19 1026L572.57 1047.28L572.57 1026L575.32 1026L575.32 1049.80L570.46 1049.80L565.12 1028.52M593.68 1049.80L590.72 1049.80L590.72 1028.58L585.32 1028.58L585.32 1026L599.09 1026L599.09 1028.58L593.68 1028.58L593.68 1049.80M638.43 1039.94L635.10 1039.94L635.10 1049.80L632.14 1049.80L632.14 1026L638.53 1026Q641.42 1026 642.90 1027.27Q644.38 1028.55 644.38 1031.30L644.38 1034.57Q644.38 1038.41 641.32 1039.36L646.05 1049.80L642.82 1049.80L638.43 1039.94M641.42 1031Q641.42 1029.71 640.83 1029.13Q640.23 1028.55 638.94 1028.55L635.10 1028.55L635.10 1037.39L638.94 1037.39Q640.23 1037.39 640.83 1036.79Q641.42 1036.20 641.42 1034.91L641.42 1031M656.62 1026L667.98 1026L667.98 1028.48L659.58 1028.48L659.58 1036.27L667.13 1036.27L667.13 1038.75L659.58 1038.75L659.58 1047.32L667.98 1047.32L667.98 1049.80L656.62 1049.80L656.62 1026M681.92 1028.52L681.92 1049.80L679.17 1049.80L679.17 1026L683.99 1026L689.37 1047.28L689.37 1026L692.12 1026L692.12 1049.80L687.26 1049.80L681.92 1028.52M710.48 1049.80L707.52 1049.80L707.52 1028.58L702.12 1028.58L702.12 1026L715.89 1026L715.89 1028.58L710.48 1028.58L710.48 1049.80M735.71 1043.78L729.08 1043.78L727.76 1049.80L724.73 1049.80L730.48 1026L734.39 1026L740.03 1049.80L737 1049.80L735.71 1043.78M729.63 1041.23L735.17 1041.23L732.38 1028.24L729.63 1041.23M750.47 1026L753.43 1026L753.43 1047.22L761.01 1047.22L761.01 1049.80L750.47 1049.80L750.47 1026M784.85 1044.02Q784.85 1046.91 783.27 1048.36Q781.68 1049.80 778.73 1049.80L773.90 1049.80L773.90 1047.22L779.07 1047.22Q780.32 1047.22 781.11 1046.47Q781.89 1045.72 781.89 1044.67L781.89 1041.13Q781.89 1040.11 781.36 1039.48Q780.83 1038.85 779.78 1038.85L778.76 1038.85Q776.24 1038.85 774.78 1037.37Q773.32 1035.89 773.32 1033.07L773.32 1031.78Q773.32 1028.89 774.90 1027.44Q776.48 1026 779.44 1026L784.30 1026L784.30 1028.58L779.10 1028.58Q777.84 1028.58 777.06 1029.33Q776.28 1030.08 776.28 1031.13L776.28 1033.72Q776.28 1034.77 776.96 1035.47Q777.64 1036.17 778.73 1036.17L779.75 1036.17Q782.16 1036.17 783.50 1037.56Q784.85 1038.95 784.85 1041.78L784.85 1044.02M825.24 1049.80Q822.18 1049.80 820.82 1048.52Q819.46 1047.25 819.46 1044.43L819.46 1040.14Q819.46 1037.19 821.67 1035.96Q819.80 1034.64 819.80 1032.02L819.80 1031.30Q819.80 1028.55 821.28 1027.27Q822.76 1026 825.65 1026L829.25 1026L829.25 1028.55L825.24 1028.55Q823.95 1028.55 823.36 1029.13Q822.76 1029.71 822.76 1031L822.76 1032.36Q822.76 1033.48 823.47 1034.16Q824.19 1034.84 825.24 1034.84L833.50 1034.84L833.50 1037.39L830.82 1037.39L830.82 1049.80L825.24 1049.80M824.90 1037.39Q823.78 1037.39 823.10 1038.05Q822.42 1038.72 822.42 1039.84L822.42 1044.77Q822.42 1046.06 823.03 1046.65Q823.64 1047.25 824.94 1047.25L828.06 1047.25L828.06 1037.39L824.90 1037.39M878.93 1044.43Q878.93 1047.35 877.59 1048.58Q876.25 1049.80 873.15 1049.80L866.15 1049.80L866.15 1026L872.74 1026Q875.80 1026 877.37 1027.24Q878.93 1028.48 878.93 1031.30L878.93 1044.43M875.97 1031Q875.97 1029.88 875.29 1029.21Q874.61 1028.55 873.49 1028.55L869.11 1028.55L869.11 1047.25L873.46 1047.25Q874.75 1047.25 875.36 1046.65Q875.97 1046.06 875.97 1044.77L875.97 1031M902.43 1044.02Q902.43 1046.91 900.85 1048.36Q899.27 1049.80 896.31 1049.80L895.46 1049.80Q892.50 1049.80 890.92 1048.36Q889.34 1046.91 889.34 1044.02L889.34 1026L892.30 1026L892.30 1044.67Q892.30 1045.72 893.08 1046.47Q893.86 1047.22 895.12 1047.22L896.65 1047.22Q897.91 1047.22 898.69 1046.47Q899.47 1045.72 899.47 1044.67L899.47 1026L902.43 1026L902.43 1044.02M924.02 1028.45L920.62 1041.81L917.80 1041.81L914.47 1028.45L914.47 1049.80L911.88 1049.80L911.88 1026L916.61 1026L919.33 1038.17L922.08 1026L926.67 1026L926.67 1049.80L924.02 1049.80L924.02 1028.45M948.77 1035.18Q948.77 1037.93 947.31 1039.24Q945.85 1040.55 942.99 1040.55L939.46 1040.55L939.46 1049.80L936.50 1049.80L936.50 1026L942.93 1026Q945.82 1026 947.30 1027.27Q948.77 1028.55 948.77 1031.30L948.77 1035.18M945.82 1031Q945.82 1029.71 945.22 1029.13Q944.63 1028.55 943.33 1028.55L939.46 1028.55L939.46 1038L943.33 1038Q944.63 1038 945.22 1037.41Q945.82 1036.81 945.82 1035.52L945.82 1031M971.73 1044.02Q971.73 1046.91 970.15 1048.36Q968.56 1049.80 965.61 1049.80L960.78 1049.80L960.78 1047.22L965.95 1047.22Q967.20 1047.22 967.99 1046.47Q968.77 1045.72 968.77 1044.67L968.77 1041.13Q968.77 1040.11 968.24 1039.48Q967.71 1038.85 966.66 1038.85L965.64 1038.85Q963.12 1038.85 961.66 1037.37Q960.20 1035.89 960.20 1033.07L960.20 1031.78Q960.20 1028.89 961.78 1027.44Q963.36 1026 966.32 1026L971.18 1026L971.18 1028.58L965.98 1028.58Q964.72 1028.58 963.94 1029.33Q963.16 1030.08 963.16 1031.13L963.16 1033.72Q963.16 1034.77 963.84 1035.47Q964.52 1036.17 965.61 1036.17L966.63 1036.17Q969.04 1036.17 970.38 1037.56Q971.73 1038.95 971.73 1041.78L971.73 1044.02M990.80 1049.80L987.84 1049.80L987.84 1028.58L982.44 1028.58L982.44 1026L996.21 1026L996.21 1028.58L990.80 1028.58L990.80 1049.80M1007.02 1026L1018.38 1026L1018.38 1028.48L1009.98 1028.48L1009.98 1036.27L1017.53 1036.27L1017.53 1038.75L1009.98 1038.75L1009.98 1047.32L1018.38 1047.32L1018.38 1049.80L1007.02 1049.80L1007.02 1026M1035.55 1039.94L1032.22 1039.94L1032.22 1049.80L1029.26 1049.80L1029.26 1026L1035.65 1026Q1038.54 1026 1040.02 1027.27Q1041.50 1028.55 1041.50 1031.30L1041.50 1034.57Q1041.50 1038.41 1038.44 1039.36L1043.17 1049.80L1039.94 1049.80L1035.55 1039.94M1038.54 1031Q1038.54 1029.71 1037.95 1029.13Q1037.35 1028.55 1036.06 1028.55L1032.22 1028.55L1032.22 1037.39L1036.06 1037.39Q1037.35 1037.39 1037.95 1036.79Q1038.54 1036.20 1038.54 1034.91L1038.54 1031M1065.17 1044.02Q1065.17 1046.91 1063.59 1048.36Q1062 1049.80 1059.05 1049.80L1054.22 1049.80L1054.22 1047.22L1059.39 1047.22Q1060.64 1047.22 1061.43 1046.47Q1062.21 1045.72 1062.21 1044.67L1062.21 1041.13Q1062.21 1040.11 1061.68 1039.48Q1061.15 1038.85 1060.10 1038.85L1059.08 1038.85Q1056.56 1038.85 1055.10 1037.37Q1053.64 1035.89 1053.64 1033.07L1053.64 1031.78Q1053.64 1028.89 1055.22 1027.44Q1056.80 1026 1059.76 1026L1064.62 1026L1064.62 1028.58L1059.42 1028.58Q1058.16 1028.58 1057.38 1029.33Q1056.60 1030.08 1056.60 1031.13L1056.60 1033.72Q1056.60 1034.77 1057.28 1035.47Q1057.96 1036.17 1059.05 1036.17L1060.07 1036.17Q1062.48 1036.17 1063.82 1037.56Q1065.17 1038.95 1065.17 1041.78"/>
</svg>