<svg xmlns="http://www.w3.org/2000/svg" width="2000" height="427" viewBox="-56 795.40380859375 1459.9677734375 312">
  <rect x="-56" y="795.40380859375" width="1459.9677734375" height="312" rx="40" fill="#111111"/>
  <path transform="translate(0 851.40380859375) scale(8.333333333333334)" fill="#FFCC00" d="M19.14,12.94c0.04-0.3,0.06-0.61,0.06-0.94c0-0.32-0.02-0.64-0.06-0.94l2.03-1.58c0.18-0.14,0.23-0.41,0.12-0.61 l-1.92-3.32c-0.12-0.22-0.37-0.29-0.59-0.22l-2.39,0.96c-0.5-0.38-1.03-0.7-1.62-0.94L14.4,2.81c-0.04-0.24-0.24-0.41-0.48-0.41 h-3.84c-0.24,0-0.43,0.17-0.47,0.41L9.25,5.35C8.66,5.59,8.12,5.92,7.63,6.29L5.24,5.33c-0.22-0.08-0.47,0-0.59,0.22L2.73,8.87 C2.62,9.08,2.66,9.34,2.86,9.48l2.03,1.58C4.84,11.36,4.8,11.69,4.8,12s0.02,0.64,0.06,0.94l-2.03,1.58 c-0.18,0.14-0.23,0.41-0.12,0.61l1.92,3.32c0.12,0.22,0.37,0.29,0.59,0.22l2.39-0.96c0.5,0.38,1.03,0.7,1.62,0.94l0.36,2.54 c0.05,0.24,0.24,0.41,0.48,0.41h3.84c0.24,0,0.43-0.17,0.47-0.41l0.36-2.54c0.59-0.24,1.13-0.56,1.62-0.94l2.39,0.96 c0.22,0.08,0.47,0,0.59-0.22l1.92-3.32c0.12-0.22,0.07-0.49-0.12-0.61L19.14,12.94z M12,15.6c-1.98,0-3.6-1.62-3.6-3.6 s1.62-3.6,3.6-3.6s3.6,1.62,3.6,3.6S13.98,15.6,12,15.6z"/>
  <path fill="#FFCC00" d="M296.94 1000L264.57 1000L264.57 902.81L296.94 902.81L296.94 941.33L327.92 941.33L327.92 960.08L296.94 960.08L296.94 1000M352.68 930.93L322.21 930.93L322.21 921.63L302.07 921.63L302.07 902.81L352.68 902.81L352.68 930.93M352.68 1000L302.07 1000L302.07 980.59L320.31 980.59L320.31 970.85L352.68 970.85L352.68 1000M468.84 1000L436.10 1000L432 989.38L400.21 989.38L406.95 970.12L424.53 970.12L398.53 902.81L430.10 902.81L468.84 1000M391.57 1000L360.30 1000L395.01 907.20L409.37 945.80L391.57 1000M551.17 1000L538.13 1000L538.13 963.60L496.09 963.60L476.61 944.12L476.61 922.22L496.09 902.81L507.07 902.81L507.07 937.30L551.75 937.30L570.58 956.79L570.58 980.59L551.17 1000M567.94 930.05L538.13 930.05L538.13 920.31L512.20 920.31L512.20 902.81L551.09 902.81L567.94 919.73L567.94 930.05M533 1000L492.94 1000L476.61 980.59L476.61 970.85L508.98 970.85L508.98 982.42L533 982.42L533 1000M665.86 923.97L581.49 923.97L581.49 902.81L665.86 902.81L665.86 923.97M640.52 1000L606.83 1000L606.83 929.03L640.52 929.03L640.52 1000M710.61 1000L678.24 1000L678.24 902.81L710.61 902.81L710.61 941.33L741.60 941.33L741.60 960.08L710.61 960.08L710.61 1000M766.35 930.93L735.88 930.93L735.88 921.63L715.74 921.63L715.74 902.81L766.35 902.81L766.35 930.93M766.35 1000L715.74 1000L715.74 980.59L733.98 980.59L733.98 970.85L766.35 970.85L766.35 1000M830.80 970.85L819.38 970.85L819.38 952.03L843.70 952.03L843.70 922.22L819.38 922.22L819.38 902.81L856.37 902.81L875.85 922.22L875.85 951.37L860.76 966.46L879.14 1000L844.57 1000L830.80 970.85M814.25 1000L781.88 1000L781.88 902.81L814.25 902.81L814.25 1000M984.03 1000L949.60 1000L890.72 902.81L924.92 902.81L984.03 1000M984.03 902.81L984.03 990.77L955.83 944.34L955.83 902.81L984.03 902.81M918.92 1000L890.72 1000L890.72 912.04L918.92 958.25L918.92 1000M1113.23 975.02L1076.90 975.02L1076.90 955.54L1100.41 955.54L1100.41 922.22L1076.90 922.22L1076.90 902.81L1113.23 902.81L1132.64 922.22L1132.64 955.54L1113.23 975.02M1071.77 1000L1039.98 1000L1039.98 902.81L1071.77 902.81L1071.77 1000M1195.84 970.85L1184.42 970.85L1184.42 952.03L1208.73 952.03L1208.73 922.22L1184.42 922.22L1184.42 902.81L1221.41 902.81L1240.89 922.22L1240.89 951.37L1225.80 966.46L1244.18 1000L1209.61 1000L1195.84 970.85M1179.29 1000L1146.92 1000L1146.92 902.81L1179.29 902.81L1179.29 1000M1328.34 1000L1303.22 1000L1303.22 980.22L1315.59 980.22L1315.59 922.51L1303.22 922.51L1303.22 902.81L1328.34 902.81L1347.97 922.22L1347.97 980.59L1328.34 1000M1298.09 1000L1273.19 1000L1253.49 980.59L1253.49 922.22L1273.19 902.81L1298.09 902.81L1298.09 922.51L1285.93 922.51L1285.93 980.22L1298.09 980.22"/>
  
</svg>