<svg xmlns="http://www.w3.org/2000/svg" width="2000" height="427" viewBox="-56 820.0941356646681 1459.9677734375 312">
  
  <path transform="translate(0 876.0941356646681) scale(8.333333333333334)" fill="#FFCC00" d="M19.14,12.94c0.04-0.3,0.06-0.61,0.06-0.94c0-0.32-0.02-0.64-0.06-0.94l2.03-1.58c0.18-0.14,0.23-0.41,0.12-0.61 l-1.92-3.32c-0.12-0.22-0.37-0.29-0.59-0.22l-2.39,0.96c-0.5-0.38-1.03-0.7-1.62-0.94L14.4,2.81c-0.04-0.24-0.24-0.41-0.48-0.41 h-3.84c-0.24,0-0.43,0.17-0.47,0.41L9.25,5.35C8.66,5.59,8.12,5.92,7.63,6.29L5.24,5.33c-0.22-0.08-0.47,0-0.59,0.22L2.73,8.87 C2.62,9.08,2.66,9.34,2.86,9.48l2.03,1.58C4.84,11.36,4.8,11.69,4.8,12s0.02,0.64,0.06,0.94l-2.03,1.58 c-0.18,0.14-0.23,0.41-0.12,0.61l1.92,3.32c0.12,0.22,0.37,0.29,0.59,0.22l2.39-0.96c0.5,0.38,1.03,0.7,1.62,0.94l0.36,2.54 c0.05,0.24,0.24,0.41,0.48,0.41h3.84c0.24,0,0.43-0.17,0.47-0.41l0.36-2.54c0.59-0.24,1.13-0.56,1.62-0.94l2.39,0.96 c0.22,0.08,0.47,0,0.59-0.22l1.92-3.32c0.12-0.22,0.07-0.49-0.12-0.61L19.14,12.94z M12,15.6c-1.98,0-3.6-1.62-3.6-3.6 s1.62-3.6,3.6-3.6s3.6,1.62,3.6,3.6S13.98,15.6,12,15.6z"/>
  <path fill="#FFCC00" d="M296.94 1000L264.57 1000L264.57 902.81L296.94 902.81L296.94 941.33L327.92 941.33L327.92 960.08L296.94 960.08L296.94 1000M352.68 930.93L322.21 930.93L322.21 921.63L302.07 921.63L302.07 902.81L352.68 902.81L352.68 930.93M352.68 1000L302.07 1000L302.07 980.59L320.31 980.59L320.31 970.85L352.68 970.85L352.68 1000M468.84 1000L436.10 1000L432 989.38L400.21 989.38L406.95 970.12L424.53 970.12L398.53 902.81L430.10 902.81L468.84 1000M391.57 1000L360.30 1000L395.01 907.20L409.37 945.80L391.57 1000M551.17 1000L538.13 1000L538.13 963.60L496.09 963.60L476.61 944.12L476.61 922.22L496.09 902.81L507.07 902.81L507.07 937.30L551.75 937.30L570.58 956.79L570.58 980.59L551.17 1000M567.94 930.05L538.13 930.05L538.13 920.31L512.20 920.31L512.20 902.81L551.09 902.81L567.94 919.73L567.94 930.05M533 1000L492.94 1000L476.61 980.59L476.61 970.85L508.98 970.85L508.98 982.42L533 982.42L533 1000M665.86 923.97L581.49 923.97L581.49 902.81L665.86 902.81L665.86 923.97M640.52 1000L606.83 1000L606.83 929.03L640.52 929.03L640.52 1000M710.61 1000L678.24 1000L678.24 902.81L710.61 902.81L710.61 941.33L741.60 941.33L741.60 960.08L710.61 960.08L710.61 1000M766.35 930.93L735.88 930.93L735.88 921.63L715.74 921.63L715.74 902.81L766.35 902.81L766.35 930.93M766.35 1000L715.74 1000L715.74 980.59L733.98 980.59L733.98 970.85L766.35 970.85L766.35 1000M830.80 970.85L819.38 970.85L819.38 952.03L843.70 952.03L843.70 922.22L819.38 922.22L819.38 902.81L856.37 902.81L875.85 922.22L875.85 951.37L860.76 966.46L879.14 1000L844.57 1000L830.80 970.85M814.25 1000L781.88 1000L781.88 902.81L814.25 902.81L814.25 1000M984.03 1000L949.60 1000L890.72 902.81L924.92 902.81L984.03 1000M984.03 902.81L984.03 990.77L955.83 944.34L955.83 902.81L984.03 902.81M918.92 1000L890.72 1000L890.72 912.04L918.92 958.25L918.92 1000M1113.23 975.02L1076.90 975.02L1076.90 955.54L1100.41 955.54L1100.41 922.22L1076.90 922.22L1076.90 902.81L1113.23 902.81L1132.64 922.22L1132.64 955.54L1113.23 975.02M1071.77 1000L1039.98 1000L1039.98 902.81L1071.77 902.81L1071.77 1000M1195.84 970.85L1184.42 970.85L1184.42 952.03L1208.73 952.03L1208.73 922.22L1184.42 922.22L1184.42 902.81L1221.41 902.81L1240.89 922.22L1240.89 951.37L1225.80 966.46L1244.18 1000L1209.61 1000L1195.84 970.85M1179.29 1000L1146.92 1000L1146.92 902.81L1179.29 902.81L1179.29 1000M1328.34 1000L1303.22 1000L1303.22 980.22L1315.59 980.22L1315.59 922.51L1303.22 922.51L1303.22 902.81L1328.34 902.81L1347.97 922.22L1347.97 980.59L1328.34 1000M1298.09 1000L1273.19 1000L1253.49 980.59L1253.49 922.22L1273.19 902.81L1298.09 902.81L1298.09 922.51L1285.93 922.51L1285.93 980.22L1298.09 980.22"/>
  <path transform="translate(4.534144587809635 0)" fill="#F3F4F6" d="M274.81 1030.16L264.42 1030.16L264.42 1046.40L260.04 1046.40L260.04 1011.10L264.42 1011.10L264.42 1026.43L274.81 1026.43L274.81 1011.10L279.20 1011.10L279.20 1046.40L274.81 1046.40L274.81 1030.16M293.48 1011.10L310.32 1011.10L310.32 1014.78L297.87 1014.78L297.87 1026.33L309.06 1026.33L309.06 1030.01L297.87 1030.01L297.87 1042.72L310.32 1042.72L310.32 1046.40L293.48 1046.40L293.48 1011.10M339.12 1037.48L329.29 1037.48L327.32 1046.40L322.83 1046.40L331.36 1011.10L337.16 1011.10L345.53 1046.40L341.04 1046.40L339.12 1037.48M330.10 1033.69L338.32 1033.69L334.18 1014.43L330.10 1033.69M363.08 1046.40L355.67 1011.10L360.11 1011.10L366.16 1041.97L372.67 1011.10L377.01 1011.10L369.09 1046.40L363.08 1046.40M400.91 1046.40L396.37 1046.40L396.37 1030.01L387.35 1011.10L392.19 1011.10L398.85 1025.77L405.50 1011.10L410.09 1011.10L400.91 1030.01L400.91 1046.40M454.88 1011.10L471.73 1011.10L471.73 1014.78L459.27 1014.78L459.27 1026.33L470.47 1026.33L470.47 1030.01L459.27 1030.01L459.27 1042.72L471.73 1042.72L471.73 1046.40L454.88 1046.40L454.88 1011.10M501.44 1045.50Q499.47 1046.40 496.60 1046.40L494.58 1046.40Q490.19 1046.40 487.85 1044.26Q485.50 1042.12 485.50 1037.83L485.50 1019.67Q485.50 1015.38 487.85 1013.24Q490.19 1011.10 494.58 1011.10L496.60 1011.10Q500.99 1011.10 503.33 1013.24Q505.68 1015.38 505.68 1019.67L505.68 1037.83Q505.68 1040.81 504.52 1042.82L508.20 1046.51L505.32 1049.38L501.44 1045.50M501.29 1018.71Q501.29 1017.15 500.13 1016.04Q498.97 1014.93 497.10 1014.93L494.08 1014.93Q492.21 1014.93 491.05 1016.04Q489.89 1017.15 489.89 1018.71L489.89 1038.79Q489.89 1040.35 491.05 1041.46Q492.21 1042.57 494.08 1042.57L497.10 1042.57Q498.97 1042.57 500.13 1041.46Q501.29 1040.35 501.29 1038.79L501.29 1018.71M537.56 1037.83Q537.56 1042.12 535.21 1044.26Q532.86 1046.40 528.48 1046.40L527.22 1046.40Q522.83 1046.40 520.48 1044.26Q518.14 1042.12 518.14 1037.83L518.14 1011.10L522.52 1011.10L522.52 1038.79Q522.52 1040.35 523.68 1041.46Q524.84 1042.57 526.71 1042.57L528.98 1042.57Q530.85 1042.57 532.01 1041.46Q533.17 1040.35 533.17 1038.79L533.17 1011.10L537.56 1011.10L537.56 1037.83M553.39 1042.72L557.93 1042.72L557.93 1014.78L553.39 1014.78L553.39 1011.10L566.86 1011.10L566.86 1014.78L562.32 1014.78L562.32 1042.72L566.86 1042.72L566.86 1046.40L553.39 1046.40L553.39 1042.72M601.56 1024.72Q601.56 1028.80 599.39 1030.74Q597.23 1032.69 592.99 1032.69L587.74 1032.69L587.74 1046.40L583.35 1046.40L583.35 1011.10L592.89 1011.10Q597.18 1011.10 599.37 1012.99Q601.56 1014.88 601.56 1018.97L601.56 1024.72M597.18 1018.51Q597.18 1016.59 596.29 1015.74Q595.41 1014.88 593.49 1014.88L587.74 1014.88L587.74 1028.90L593.49 1028.90Q595.41 1028.90 596.29 1028.02Q597.18 1027.14 597.18 1025.22L597.18 1018.51M631.78 1014.73L626.73 1034.55L622.55 1034.55L617.60 1014.73L617.60 1046.40L613.77 1046.40L613.77 1011.10L620.78 1011.10L624.82 1029.15L628.90 1011.10L635.71 1011.10L635.71 1046.40L631.78 1046.40L631.78 1014.73M648.57 1011.10L665.42 1011.10L665.42 1014.78L652.96 1014.78L652.96 1026.33L664.16 1026.33L664.16 1030.01L652.96 1030.01L652.96 1042.72L665.42 1042.72L665.42 1046.40L648.57 1046.40L648.57 1011.10M683.73 1014.83L683.73 1046.40L679.64 1046.40L679.64 1011.10L686.81 1011.10L694.78 1042.67L694.78 1011.10L698.86 1011.10L698.86 1046.40L691.65 1046.40L683.73 1014.83M723.73 1046.40L719.34 1046.40L719.34 1014.93L711.32 1014.93L711.32 1011.10L731.75 1011.10L731.75 1014.93L723.73 1014.93L723.73 1046.40M785.27 1046.40Q780.73 1046.40 778.71 1044.51Q776.69 1042.62 776.69 1038.44L776.69 1032.08Q776.69 1027.69 779.97 1025.88Q777.20 1023.91 777.20 1020.02L777.20 1018.97Q777.20 1014.88 779.39 1012.99Q781.58 1011.10 785.87 1011.10L791.22 1011.10L791.22 1014.88L785.27 1014.88Q783.35 1014.88 782.47 1015.74Q781.58 1016.59 781.58 1018.51L781.58 1020.53Q781.58 1022.19 782.64 1023.20Q783.70 1024.21 785.27 1024.21L797.52 1024.21L797.52 1027.99L793.54 1027.99L793.54 1046.40L785.27 1046.40M784.76 1027.99Q783.10 1027.99 782.09 1028.98Q781.08 1029.96 781.08 1031.63L781.08 1038.94Q781.08 1040.86 781.99 1041.74Q782.90 1042.62 784.81 1042.62L789.45 1042.62L789.45 1027.99L784.76 1027.99M860.17 1038.44Q860.17 1042.77 858.18 1044.59Q856.18 1046.40 851.59 1046.40L841.20 1046.40L841.20 1011.10L850.99 1011.10Q855.53 1011.10 857.85 1012.94Q860.17 1014.78 860.17 1018.97L860.17 1038.44M855.78 1018.51Q855.78 1016.85 854.77 1015.86Q853.76 1014.88 852.10 1014.88L845.59 1014.88L845.59 1042.62L852.05 1042.62Q853.96 1042.62 854.87 1041.74Q855.78 1040.86 855.78 1038.94L855.78 1018.51M892.65 1037.83Q892.65 1042.12 890.31 1044.26Q887.96 1046.40 883.57 1046.40L882.31 1046.40Q877.92 1046.40 875.58 1044.26Q873.23 1042.12 873.23 1037.83L873.23 1011.10L877.62 1011.10L877.62 1038.79Q877.62 1040.35 878.78 1041.46Q879.94 1042.57 881.81 1042.57L884.08 1042.57Q885.94 1042.57 887.10 1041.46Q888.26 1040.35 888.26 1038.79L888.26 1011.10L892.65 1011.10L892.65 1037.83M922.31 1014.73L917.27 1034.55L913.08 1034.55L908.14 1014.73L908.14 1046.40L904.30 1046.40L904.30 1011.10L911.32 1011.10L915.35 1029.15L919.44 1011.10L926.25 1011.10L926.25 1046.40L922.31 1046.40L922.31 1014.73M956.66 1024.72Q956.66 1028.80 954.49 1030.74Q952.32 1032.69 948.09 1032.69L942.84 1032.69L942.84 1046.40L938.45 1046.40L938.45 1011.10L947.98 1011.10Q952.27 1011.10 954.47 1012.99Q956.66 1014.88 956.66 1018.97L956.66 1024.72M952.27 1018.51Q952.27 1016.59 951.39 1015.74Q950.51 1014.88 948.59 1014.88L942.84 1014.88L942.84 1028.90L948.59 1028.90Q950.51 1028.90 951.39 1028.02Q952.27 1027.14 952.27 1025.22L952.27 1018.51M988.34 1037.83Q988.34 1042.12 985.99 1044.26Q983.65 1046.40 979.26 1046.40L972.10 1046.40L972.10 1042.57L979.76 1042.57Q981.63 1042.57 982.79 1041.46Q983.95 1040.35 983.95 1038.79L983.95 1033.54Q983.95 1032.03 983.17 1031.10Q982.38 1030.16 980.82 1030.16L979.31 1030.16Q975.58 1030.16 973.41 1027.97Q971.24 1025.77 971.24 1021.59L971.24 1019.67Q971.24 1015.38 973.58 1013.24Q975.93 1011.10 980.32 1011.10L987.53 1011.10L987.53 1014.93L979.81 1014.93Q977.95 1014.93 976.79 1016.04Q975.63 1017.15 975.63 1018.71L975.63 1022.55Q975.63 1024.11 976.63 1025.14Q977.64 1026.18 979.26 1026.18L980.77 1026.18Q984.35 1026.18 986.34 1028.25Q988.34 1030.31 988.34 1034.50L988.34 1037.83M1014.26 1046.40L1009.87 1046.40L1009.87 1014.93L1001.85 1014.93L1001.85 1011.10L1022.28 1011.10L1022.28 1014.93L1014.26 1014.93L1014.26 1046.40M1035.95 1011.10L1052.80 1011.10L1052.80 1014.78L1040.34 1014.78L1040.34 1026.33L1051.54 1026.33L1051.54 1030.01L1040.34 1030.01L1040.34 1042.72L1052.80 1042.72L1052.80 1046.40L1035.95 1046.40L1035.95 1011.10M1075.90 1031.78L1070.96 1031.78L1070.96 1046.40L1066.57 1046.40L1066.57 1011.10L1076.05 1011.10Q1080.34 1011.10 1082.53 1012.99Q1084.73 1014.88 1084.73 1018.97L1084.73 1023.81Q1084.73 1029.51 1080.19 1030.92L1087.20 1046.40L1082.41 1046.40L1075.90 1031.78M1080.34 1018.51Q1080.34 1016.59 1079.46 1015.74Q1078.57 1014.88 1076.66 1014.88L1070.96 1014.88L1070.96 1027.99L1076.66 1027.99Q1078.57 1027.99 1079.46 1027.11Q1080.34 1026.23 1080.34 1024.31L1080.34 1018.51M1140.46 1031.78L1135.52 1031.78L1135.52 1046.40L1131.13 1046.40L1131.13 1011.10L1140.61 1011.10Q1144.90 1011.10 1147.10 1012.99Q1149.29 1014.88 1149.29 1018.97L1149.29 1023.81Q1149.29 1029.51 1144.75 1030.92L1151.76 1046.40L1146.97 1046.40L1140.46 1031.78M1144.90 1018.51Q1144.90 1016.59 1144.02 1015.74Q1143.14 1014.88 1141.22 1014.88L1135.52 1014.88L1135.52 1027.99L1141.22 1027.99Q1143.14 1027.99 1144.02 1027.11Q1144.90 1026.23 1144.90 1024.31L1144.90 1018.51M1165.08 1011.10L1181.93 1011.10L1181.93 1014.78L1169.47 1014.78L1169.47 1026.33L1180.66 1026.33L1180.66 1030.01L1169.47 1030.01L1169.47 1042.72L1181.93 1042.72L1181.93 1046.40L1165.08 1046.40L1165.08 1011.10M1200.23 1014.83L1200.23 1046.40L1196.15 1046.40L1196.15 1011.10L1203.31 1011.10L1211.28 1042.67L1211.28 1011.10L1215.37 1011.10L1215.37 1046.40L1208.15 1046.40L1200.23 1014.83M1240.23 1046.40L1235.85 1046.40L1235.85 1014.93L1227.83 1014.93L1227.83 1011.10L1248.25 1011.10L1248.25 1014.93L1240.23 1014.93L1240.23 1046.40M1275.29 1037.48L1265.45 1037.48L1263.49 1046.40L1259 1046.40L1267.52 1011.10L1273.32 1011.10L1281.70 1046.40L1277.21 1046.40L1275.29 1037.48M1266.26 1033.69L1274.48 1033.69L1270.35 1014.43L1266.26 1033.69M1294.81 1011.10L1299.20 1011.10L1299.20 1042.57L1310.45 1042.57L1310.45 1046.40L1294.81 1046.40L1294.81 1011.10M1343.43 1037.83Q1343.43 1042.12 1341.09 1044.26Q1338.74 1046.40 1334.35 1046.40L1327.19 1046.40L1327.19 1042.57L1334.86 1042.57Q1336.73 1042.57 1337.89 1041.46Q1339.05 1040.35 1339.05 1038.79L1339.05 1033.54Q1339.05 1032.03 1338.26 1031.10Q1337.48 1030.16 1335.92 1030.16L1334.40 1030.16Q1330.67 1030.16 1328.50 1027.97Q1326.33 1025.77 1326.33 1021.59L1326.33 1019.67Q1326.33 1015.38 1328.68 1013.24Q1331.03 1011.10 1335.41 1011.10L1342.63 1011.10L1342.63 1014.93L1334.91 1014.93Q1333.04 1014.93 1331.88 1016.04Q1330.72 1017.15 1330.72 1018.71L1330.72 1022.55Q1330.72 1024.11 1331.73 1025.14Q1332.74 1026.18 1334.35 1026.18L1335.87 1026.18Q1339.45 1026.18 1341.44 1028.25Q1343.43 1030.31 1343.43 1034.50"/>
</svg>